{"title":"Embarrassing Bodies - S07E02","uid":16043814,"size":1163664090,"categoryP":"video","categoryS":"tv_shows","magnet":"?xt=urn:btih:bee58cf61edf5e98f3d895e64ca0e3d8605eeb9c&amp;dn=Embarrassing+Bodies+-+S07E02&amp;tr=udp%3A%2F%2Ftracker.leechers-paradise.org%3A6969&amp;tr=udp%3A%2F%2Fzer0day.ch%3A1337&amp;tr=udp%3A%2F%2Fopen.demonii.com%3A1337&amp;tr=udp%3A%2F%2Ftracker.coppersurfer.tk%3A6969&amp;tr=udp%3A%2F%2Fexodus.desync.com%3A6969","seeders":8,"leechers":2,"uploader":"Bullrout","files":1,"time":1476541648,"description":"Embarrassing Bodies - S07E02\r\n\r\nDoctor Christian helps 37-year-old Adam who has a rare penis problem. Dr Dawn helps Sally, a young mother who was born without ears. Can complex reconstruction help her hear clearly for the first time in her life and improve her appearance?\r\n\r\nComplete name                            : Embarrassing Bodies - S07E02.mkv\r\nFormat                                   : Matroska\r\nFormat version                           : Version 4 / Version 2\r\nFile size                                : 1.08 GiB\r\nDuration                                 : 46 min 53 s\r\nOverall bit rate mode                    : Variable\r\nOverall bit rate                         : 3 308 kb/s\r\nEncoded date                             : UTC 2016-10-14 11:24:32\r\nWriting application                      : mkvmerge v9.4.2 ('So High') 64bit\r\nWriting library                          : libebml v1.3.4 + libmatroska v1.4.5\r\n\r\nVideo\r\nID                                       : 2\r\nFormat                                   : AVC\r\nFormat/Info                              : Advanced Video Codec\r\nFormat profile                           :   \r\nFormat settings, CABAC                   : Yes\r\nFormat settings, ReFrames                : 3 frames\r\nCodec ID                                 : V_MPEG4/ISO/AVC\r\nDuration                                 : 46 min 53 s\r\nBit rate mode                            : Variable\r\nBit rate                                 : 2 923 kb/s\r\nMaximum bit rate                         : 3 000 kb/s\r\nWidth                                    : 1 280 pixels\r\nHeight                                   : 720 pixels\r\nDisplay aspect ratio                     : 16:9\r\nFrame rate mode                          : Constant\r\nFrame rate                               : 25.000 FPS\r\nStandard                                 : PAL\r\nColor space                              : YUV\r\nChroma subsampling                       : 4:2:0\r\nBit depth                                : 8 bits\r\nScan type                                : Progressive\r\nBits/(Pixel*Frame)                       : 0.127\r\nStream size                              : 980 MiB (88%)\r\nWriting library                          : x264 core 112\r\nDefault                                  : Yes\r\nForced                                   : No\r\nColor range                              : Limited\r\nColor primaries                          : BT.709\r\nTransfer characteristics                 : BT.709\r\nMatrix coefficients                      : BT.709\r\n\r\nAudio\r\nID                                       : 1\r\nFormat                                   : AC-3\r\nFormat/Info                              : Audio Coding 3\r\nMode extension                           : CM (complete main)\r\nFormat settings, Endianness              : Big\r\nCodec ID                                 : A_AC3\r\nDuration                                 : 46 min 53 s\r\nBit rate mode                            : Constant\r\nBit rate                                 : 384 kb/s\r\nChannel(s)                               : 6 channels\r\nChannel positions                        : Front: L C R, Side: L R, LFE\r\nSampling rate                            : 48.0 kHz\r\nFrame rate                               : 31.250 FPS (1536 spf)\r\nCompression mode                         : Lossy\r\nStream size                              : 129 MiB (12%)\r\nDefault                                  : Yes\r\nForced                                   : No","torrent":{"xt":"urn:btih:bee58cf61edf5e98f3d895e64ca0e3d8605eeb9c","amp;dn":"Embarrassing+Bodies+-+S07E02","amp;tr":["udp%3A%2F%2Ftracker.leechers-paradise.org%3A6969","udp%3A%2F%2Fzer0day.ch%3A1337","udp%3A%2F%2Fopen.demonii.com%3A1337","udp%3A%2F%2Ftracker.coppersurfer.tk%3A6969","udp%3A%2F%2Fexodus.desync.com%3A6969"],"infoHash":"bee58cf61edf5e98f3d895e64ca0e3d8605eeb9c","infoHashBuffer":{"type":"Buffer","data":[190,229,140,246,30,223,94,152,243,216,149,230,76,160,227,216,96,94,235,156]},"announce":[],"urlList":[]}}